<svg width="55" height="68" viewBox="0 0 55 68" fill="none" xmlns="http://www.w3.org/2000/svg">
<path d="M9.16634 21.4998C9.16634 20.1191 10.2856 18.9998 11.6663 18.9998H19.9997C21.3804 18.9998 22.4997 20.1191 22.4997 21.4998V29.8332C22.4997 31.2139 21.3804 32.3332 19.9997 32.3332H18.333V41.2976L23.5352 46.4998H32.4997V44.8332C32.4997 43.4524 33.619 42.3332 34.9997 42.3332H43.333C44.7137 42.3332 45.833 43.4524 45.833 44.8332V53.1665C45.833 54.5472 44.7137 55.6665 43.333 55.6665H34.9997C33.619 55.6665 32.4997 54.5472 32.4997 53.1665V51.4998H23.5352L17.6008 57.4343C16.6245 58.4106 15.0416 58.4106 14.0652 57.4343L7.39857 50.7676C6.42226 49.7913 6.42226 48.2084 7.39857 47.2321L13.333 41.2976V32.3332H11.6663C10.2856 32.3332 9.16634 31.2139 9.16634 29.8332V21.4998ZM52.213 22.0465L32.783 2.61984C32.7332 2.57 32.6767 2.52677 32.6206 2.48382C32.5792 2.45208 32.5379 2.4205 32.4997 2.3865C32.263 2.17317 32.0297 1.96317 31.7697 1.7865C31.6854 1.72964 31.5932 1.68476 31.5014 1.64007C31.4479 1.61403 31.3946 1.58807 31.343 1.55984C31.2874 1.52848 31.2319 1.49639 31.1763 1.46426C30.9957 1.35974 30.8142 1.25475 30.623 1.17317C29.9663 0.899837 29.2597 0.76317 28.543 0.71317C28.4773 0.708978 28.4122 0.7001 28.347 0.691202C28.2566 0.678872 28.1659 0.666504 28.073 0.666504H7.49967C3.81967 0.666504 0.833008 3.65317 0.833008 7.33317V60.6665C0.833008 64.3465 3.81967 67.3332 7.49967 67.3332H47.4997C51.1797 67.3332 54.1663 64.3465 54.1663 60.6665V26.7598C54.1663 24.9932 53.463 23.2965 52.213 22.0465ZM49.1663 60.6665C49.1663 61.5832 48.4197 62.3332 47.4997 62.3332H7.49967C6.57967 62.3332 5.83301 61.5832 5.83301 60.6665V7.33317C5.83301 6.4165 6.57967 5.6665 7.49967 5.6665H27.4997V20.6665C27.4997 24.3465 30.4863 27.3332 34.1663 27.3332H49.1663V60.6665ZM32.4997 9.40317L45.4263 22.3332H34.1663C33.2463 22.3332 32.4997 21.5832 32.4997 20.6665V9.40317Z" fill="#242424"/>
</svg>
